<svg id="Слой_1" data-name="Слой 1" xmlns="http://www.w3.org/2000/svg" xmlns:xlink="http://www.w3.org/1999/xlink" viewBox="0 0 886 504"><defs><style>.cls-1{fill:none;}.cls-2{clip-path:url(#clip-path);}.cls-3{fill:#f0e7d5;}</style><clipPath id="clip-path"><rect class="cls-1" x="24.64" y="19.88" width="844.36" height="475.46"/></clipPath></defs><g class="cls-2"><path class="cls-3" d="M350.2,19.76c-1.37.06-2.85.25-4.75.5-3.78.51-8.17,1-9.73,1.17a30.79,30.79,0,0,0-5.44,1.2h0a83,83,0,0,0-11.9,4.67c-2.76,1.34-5.58,2.42-6.26,2.4-1.58,0-1.3.85.55,1.72s2.8.62,8-2.13c11.26-5.94,26-6.93,46.75-3.15,4.42.8,6.11,1.26,14.29,3.88a60,60,0,0,1,16.55,8.37c2.94,2.09,5.58,3.74,5.86,3.66.86-.25.2-1.36-1.65-2.77-1-.74-1.5-1.43-1.16-1.52a1.4,1.4,0,0,1,1.16.32,18.88,18.88,0,0,0,4.5,1.23c5.42,1,16.38,7,23.21,12.65,1.25,1,1.86,1.13,3.09.5,2.3-1.18,5.58.53,10.15,5.31,4.95,5.16,5.06,5.61.78,3.07-3.29-2-3.63-2-7.23-1.26l-3.79.79.58,1.85c2.23,7.17-3.65,13.42-11.58,12.32-3.74-.53-4.11-1-2.95-3.59,2.2-5,1.72-5.78-5.9-9.77-7.24-3.79-8.5-5-11.18-11.11-1.45-3.3-2.94-4.35-5.94-4.15-2.12.14-8.05-2.47-8.44-3.72-3.4-5-10.13-7.5-14.75-9-2.86-.63-16.29-2.64-19.48-2.56-4.29.11-4.44,1.29,3.32,2.69,13.64,2.44,24.57,17,14.92,20.6-2.2.81,9,8.06,13.3,8.61,10.13,1.29,12.51,2.19,17.31,6.48,1.9,1.7,1.58,0-.43-2.27-2.58-2.95-4.88-4.24-9.16-5.17-7.5-1.62-10.64-5.48-14-17.13l-2.25-7.9,3.69,1.93c2,1.06,3.83,2.34,4,2.86a13,13,0,0,0,3,3.18,17.54,17.54,0,0,1,2.8,2.73c.27.88,3.08,1.86,5.63,2,1.38.06,2.68.45,2.88.87s1.27,3.06,2.38,5.88l2,5.13,4.73,2.33c2.61,1.29,5.07,2.25,5.47,2.14,4-1.12,1.81,9.72-2.83,13.81l-2.62,2.31L403.61,81c-3.94-.71-15.23-.68-17.79,0-2.93.89-8.2.36-12.78.72-4,.35-8.37-.17-10.18-1.21a35.07,35.07,0,0,1-7.76-5.42l-3-2.61.61-2.86c1.46-6.79-10.19-18.51-12.39-12.5-.62,1.66-5.68,4.05-5.76,4.45-1.61-.75,1.56-3.77,2.6-8.54.47-2.15-3.81-5.26-5.16-8.13-3.59-3.16-2.18-.15-1.67,1.48,1.65,5.29,2.14,13.12.18,16-.85,1.24-.55,2.31.44,1.57,2.46-1.84,13.58,1.93,15.75,5.34,5.73,9,3.37,10.9-6.39,8.9-2.06-.42-3.16,8.42-3.32,9-.51,1.89,18.82,2.32,25.63,1.4a8.1,8.1,0,0,1,3.47,0c.27.24,2.88-.25,5.79-1.08,9.38-2.68,20.29-2.88,27.18-.52,3.77,1.29,6.75,1.4,7.54.28.29-.41,3.79-2,7.8-3.56,7-2.7,8.16-3.27,13.53-6.43,3.46-2,8.56-7.28,9.93-10.2,2.77-5.92,13.66-.09,15.48,8.28,1.39,6.38,2.75,7.45,3.35,2.64.3-2.45,2.51,1,5.13,8.09s5.57,12.51,8.82,16.22,3.62,3.37,1.09-.91-2.39-4.2,2.31-1.2c8.45,5.39,23.69,19.82,31.88,24.94,11.24,6.21,17.76,10.88,29.13,17.5,8.28,4.82,24.76,14.39,23.94,15.29-.63.69-4.91,1.58-7.78,1.61-5.2.07-5.2.71,0,8.8,3.46,5.45,4.74,6.36,8.15,5.85,6.54-1,5.3,3.72-1.42,5.36l-4.26,1-.72,2.92a10.29,10.29,0,0,1-1.89,3.33,3.67,3.67,0,0,0-.7,2c.11.32,1.2.1,2.61-.54s4.52-1.93,7.07-2.95c5.49-2.19,6.18-1.48,10-5.9,5.33-6.18,5.55-11.6.68-16-2-1.77-4.36-3.72-7.15-5.86-22.85-14.87-43.35-26.08-63.24-40.63-12-8.34-18.12-16.78-26.85-25.77a60.34,60.34,0,0,1-5-6.65C457.77,68.19,450,58.81,441,51.14c-9.89-8.39-16.64-11.34-30.45-15.57-5.74-1.35-9.11-2.29-22.13-6.19-5.73-1.71-10.94-3.17-11.56-3.23s-4.48-1.15-8.56-2.39c-10.75-3.29-13.93-4.18-18.06-4Zm-54.76,5.09c-4.12-.16-8.28,1.74-15.94,7-9.39,6.46-14.25,9.31-20.07,11.8-10.28,4.39-12.15,8.45-9.22,20a126.69,126.69,0,0,1,4.08,33.49c-.41,3.68-.73,6.89-.71,7.15h0c-2.27,12.2,17.77-11.28,25.19-21.17A16.42,16.42,0,0,1,281.84,80c3.73-2.13,4.05-5.56,4.32-7.75.41-3.36-1-4.87-6.78-7.55-10-4.58-11.39-11.1-2.61-12,2.82-.3,2.85-.28,1.57.88-2.88,2.62-2,4,5.48,8.77a16.46,16.46,0,0,1,4.75,4.29c1.81,3.52,5.61,7.2,7.48,3.29.75-1.55,2.38-3.35,3.94-2.07,7.41,10.11,8.4,9.31,3.88-1-2.84-6.46,3.24-7.31.34-9.56-.92-.71-6.56-.13-9.08,3.16-2.39,3.13-2.66,9.66-5.81,2.61-.55-1.25-3.16-2.56-4.77-3.49-5-2.89-5.22-3.24-3.44-5.14,6.39-1.87,8.63-3.45,8.43-5.48-.34-3.4-1.89,1.42-13.64,1.37-10.78,0-10.41,10.3.45,15.67,7.18,3.55,7.79,7.33,3.22,8.82-.51.16.18,2.56-.82,4-2.25,3.25-10.95,12.37-16,16.77-6.85,6.14.81-10.38-2.79-15.28-2.36-6.87-5.43-11.1-7.08-18.21-2.23-10.18-1.11-12.37,8.57-16.72,3.49-1.57,8.76-3.28,13-6.13,12.76-8.54,15.66-11.47,18.83-11.86,4.1-.5,8,1.45,10.57,5.34,5.23,7.83,16.16,12.46,19.21,8.15,7.77-7.52,1-3.32-3.82-3.12-3.41.13-8.82-3.42-10.94-5.82-2-2.2-8.28-5.69-11.13-6.9a13.66,13.66,0,0,0-1.77-.19ZM245.82,59.59C213,76.94,169.18,117.75,141.13,156.73c-21.84,27.34-34.7,56.76-51,88.36C84,256.4,76.73,268.59,74,272.18,56,295.44,50.49,303.56,45.06,314.47c-7,10-9.08,19.47-9.34,31.21l2.4,18.93-5.22,5.94c-21.25,24.14,1.37,92.19,30,124.76,0,0-8.06-20.38,3.2-32.17C45.83,442.88,19,399.05,38.67,374.7l14.76-15.34c-6.07-2-7.72-9-8-14.1.87-30.15,4.83-39.71,26.65-64.29,9.58-10.81,13.5-16.51,22.66-33,6.09-11,15.44-27.61,20.77-37,13.15-23.15,22.89-42.91,39.76-63.88,11.74-16,32.57-39.78,44.49-50.82,10.69-9.9,30.94-22.48,46.74-30.77-.23-2-.5-4.15-.72-5.92Zm196.08,14a1.77,1.77,0,0,0-.46.07,2.78,2.78,0,0,0-1.79,2.18,1.61,1.61,0,0,1-1.07,1,13.28,13.28,0,0,0-3.23,3.1c-3.4,4.12-5.5,5.34-11.39,6.63s-6,1.48-2,2a13.66,13.66,0,0,0,10.69-3.11c1.93-1.79,3.86-2.3,2.31-.61-.78.87.35,5.36,2,7.9,1.28,2-.51,1.7-5.8-.86-2.51-1.22-4.13-1.6-5.32-1.26a24.15,24.15,0,0,1-5.16.47c-1.9,0-3.54.15-3.65.36-.32.57,3.85,1.22,5.29.81.74-.21,3.27.64,6,2a39.75,39.75,0,0,0,8.22,3,13.82,13.82,0,0,0,6.77-.26c4.56-1.27,5.39-2.4,1.67-2.26-3.12.11-4.82-.63-2.79-1.21,1.57-.44,4.69-6,4.22-7.53-.69-2.21.51-2,1.57.24,1.17,2.52,2.33,3.45,3.15,2.56.36-.41.11-1-.85-2s-1.5-2.24-2-5.28c-.75-4.72-4-8.16-6.39-8Zm-.13,4.86c1.3,0,1.41,3.94.79,5.36-1,2.91-2,2.34-2.94-.72-.46-1.47-.79-1.79-1.39-1.34-.44.33-.88.33-1,0-.2-.64,2.57-2.77,4.24-3.24a.74.74,0,0,1,.28-.06ZM335.63,91.14c-2.39,8.19-7.57,5.67-16.15,6.93-1.11.26,5.17,27.66,9.38,29,11.76,3.72,22.87-16.28,25.51-10.24,2.9,6.17,14.95,12.49,14.94,20.84-3.39,14.09,18.88,19.36,22.13,20.62,6.32,2.24,13.78,3.89,17.2,3.8,3.75-.09,8,1.42,9.71,3.46,1,1.14,3.08,1.69,2.77.71-.74-2.4-7.78-8.07-9.93-8-1.91.08-10.39-2.12-14.06-3.64-4.61-1.9-12.91-8.33-16-12.38-2.9-3.79-3.6-5.57-5.24-13.35-1.81-8.59.83-7.27-1.9-12.73-2.23-4.49-1.9-5.22,2-4.46,12.88,2.49,12.58-4.17,19-7.73,6.63-3.67,7.75-5.35,10.78-1.41,4.25,5.53,15.29,8.45,16.78,8,1.78-.51,5.53,1.74,5.53,1.74.13,6.44-4.69,13.4-13.5,15.91-4.68,2.28-5.91-1.11-8.56-4-.81-.82,4.06-6.75,5.09-6.2.76.4-.08,1.84-1.92,3.3-2.34,1.86-.65,2.59,2.42,1.07a3.39,3.39,0,0,0,.06-5.8c-3.3-1.75-10.1,1.63-9.92,8.94.58,6.47,3,7.74,6.45,9.35,5.6,1.16,10.79-3.54,14-7.79a43.53,43.53,0,0,1,4.77-4.88c1.84-1.62,4.07-3.76,5-4.75,2.06-2.28,6.95-5,11.15-6.22l3.25-.94-4.84-1.64c-10.22-3.62-20.43-5.17-30.65-7.38a50.91,50.91,0,0,1-6.54-2.9c-6.16-3-6.61-3.07-9.44-.85-10,7.81-21.62,7.7-39.87-.37-4.94-2.19-16.59-6.16-19.37-6Zm-31,7.17c-3.24.07-6.55,4.51-13.49,9.75-29.41,22.2-47.24,57.07-50.89,91.21-4.55,42.58-1.77,79.21,10.21,107,34.91,65.34,87.18,65.69,141.88,64.94,47.84-.43,166.87-19.25,224.34,12A157.71,157.71,0,0,0,633.56,378c-111.13-43.41-252.2,15.15-325.24-36.63-5.77-4.37-23.18-25.28-24.63-27.83-1.36-2.39,0,7.81.28,12.93-28.52-13.58-46.29-89.3-29-152.51,20.94-56.56,53.54-64.9,59.9-46,3.1,9.2,4.88-3.74-.66-15.14-3.1-9-4.9-13.38-8.22-14.34a4.36,4.36,0,0,0-1.31-.16Zm137.23,39.46a6.81,6.81,0,0,0-3.6,1.68,32.53,32.53,0,0,1-9.54,5.22A27.59,27.59,0,0,1,413.66,146a29.23,29.23,0,0,1-5.52-1.75,5.44,5.44,0,0,0-2.75-.6c-.26.11-.11.42.57.91,8.56,6.17,16.51,6.74,33,2.38,11.43-3,12.17-3.13,16-2.6,23.18,3.77,26.58,11.09,31.42,16.74,6.51,14.64,26,28.26,41.06,28.71,4.26.13,11.21-2.88,13.36-5.76,4.43-6,6.08-9.52,5.42-11.65a40.42,40.42,0,0,0-8.11-14.21c-4.5-4-8.34-5.38-13.37-7.16-4.3-1.53-5.25,3.76-1.18,6.56,1.35.93,3.29,2.47,1.71-.26a8.34,8.34,0,0,1-1.3-3.24c.25-.92,5,.58,8.12,3,3.92,2.32,4.27,6.18,5.43,10.21,3.85,13.2,3.36,14.59-5.85,16.63-14.45,3.2-29.91-3.24-33.56-13.2-3.2-8.76-12.38-16.67-19.3-20.48a66.14,66.14,0,0,0-23.74-7.29,61.77,61.77,0,0,1-7.2-2.17A7.3,7.3,0,0,0,445,140c-.37.1-.81-.3-1-.9a1.86,1.86,0,0,0-2.09-1.31ZM244.66,158.62C225,199.5,204,255.63,202.6,292.23c9.11-6.69,32.84,5.18,41.27,15.08-13-35.73-15.74-91.78.79-148.69Zm84,0a3.16,3.16,0,0,0-2.14,1.27c-19.71,22.3-63.53,79.62-54.44,131,2.32,15.82,6.51,27.49,6.68,26.16.63-5.22,1.63-9.06,1-11.8-6.06-26.33-1.16-54.85,7.83-74.74,10.51-19.56,26.72-45.08,46.36-53.22,9.61-3.85,21.59-5.36,35.65-5.09,22.49.26,40.88,13.1,79.82,21.09a182.79,182.79,0,0,1,21.8,6.64c1.25.54,2.53,1.1,3.88,1.71a102.92,102.92,0,0,0,24,7.1.36.36,0,0,0,0-.09c3.48.63,5.18,0,11.54-2.15,7.77-2.25,9.69-3,9.92-3.82.53-1.89-.51-1.87-7.42.12a41.77,41.77,0,0,1-9.82,1.92c-7.49-.15-12.73-1-16.93-2.67-2.49-1-8-3-12.24-4.46l-.82-.28a157.92,157.92,0,0,0-25.06-7.81c-29.18-8.36-36.93-12-52.8-18s-45.34-7.22-55.41-5.41c-6.66,1.2-11.05-1.53-10.5-3.07.2-.58.58-1.64.83-2.36.5-1.39-.53-2.15-1.76-2Zm135.15,21.3a14.63,14.63,0,0,0-4.72.72l-.29.1c-2.14.95-1.2,1.8,1.54,1.39,2.95-.44,3.55-.26,12.29,3.6,3.67,1.62,6.76,3.52,9.66,4.79,2.83,1.67,10.8,3.34,5,.93a211.06,211.06,0,0,0-19-10.39,12.49,12.49,0,0,0-4.49-1.14Zm87.49,1.25c-.46,0-1.3.7-2.34,2.14-.89,1.25-2.12,2.94-2.71,3.74-2.08,2.83-6.68,6.24-12.05,7.77-5.21,1.48-6.83,2.5-15.34,2.64-2.68,0-6.49.19-8.47.32-4.51.31-7.66-.5-14.35-3.7-3.18-1.52-4.69-1.3-5-1.2s1.14,1.18,4.62,3.09c7.29,4,18.74,5,29.14,4,7.71-1.65,12-2.1,16.92-5.94,2.1-1.64,4.86-2.41,6.47-4.11s2.05-4.31,2.71-5.64c1-2,1-3.13.41-3.11ZM212.17,296c-6.16,0-11.38,3.12-15.29,9.45-7.8,12.63-.95,22.62,17.85,26,22.67,4.06,25,3.26,17.23-6s-20-15.09-17.84-8.51c1.11,3.36-.83,2.92-4.85-1.1-9.4-9.38,1.1-14.31,15.72-7.37,20.78,9.84,32.8,26.3,24.8,34-1.67,1.59-3,3.53-3,4.31,0,2.77,19.65,14,27.17,14.93,16.77,2.06,27.35,3.88,14.4-1.62-7.08-3-20.57-13.63-26.22-22-18.38-27.39-36.41-42.07-49.94-42Zm-136.59,74-8.35,9.89c4.06-1.4,8.11-5.17,12.16-2.58,2.12.17,3,13.62,3,37.58,0,13.6-1.92,26.47-7.6,44.26,6.94-4.12,11.57-3.05,16.18-4.44-.52-10.75-.78-23.36-.78-34.11q0-22.47,1.38-42.92c-5.1-.8-10.86-2.37-16-7.68Zm151.91,2.31c-.91,0-11.2,5.29-16.83,1.94-9.52-2.45-13.82,1-21.34,6.1q-8.4,6.86-8.32,16.63.09,8.89,5.75,14.35,2.48,2.42,11.91,7.49,13.64,7.36,13.63,19.43a14.9,14.9,0,0,1-2.74,9.15c-1.83,2.45-4,3.64-6.52,3.55-9.42-.25-21.17-8.49-24.49-21.11l-.77-2.92a55.93,55.93,0,0,1,.34,5.72A43,43,0,0,1,176.74,443a35.94,35.94,0,0,1-2.49,7.5c4.41,2.79,14.75,5.87,20.3,5.61,7.14-.34,15.22-1.12,20-5.43,5.54-5,8.14-14.31,8.25-23.28.06-6-4.38-10.32-9.59-14.47q-7.28-4.56-14.57-9.26-7.89-5.59-7.88-13.34c0-4.06.63-6.9,1.88-8.5s3.6-2.38,7-2.29q9.09.12,13,12.31c1,5.34,2,4.24,3,1.37,2.82-11.27,3.4-13.05,11.78-20.83Zm434.05,0a42.14,42.14,0,0,1-11.31,5.08q.51,16.24.68,23.49h-7.45q-11.16,0-18.43,9a33.33,33.33,0,0,0-7.2,21.46,37.68,37.68,0,0,0,2.65,14q4.63,11.69,14.75,11.69,7.88,0,13.46-7.62c1.14-1.61,1.91-2.67,2.31-3.17-.06,4.4-.11,7.74-.17,10a30.89,30.89,0,0,1,5.83-1.78,36.83,36.83,0,0,1,5.83-.89l-1.55-2.29q-1.87-2.79-2.23-14.85.09,2.28.09-22.35,0-6.36,1-21.46.95-14.61,1.71-20.32Zm-159.08,4.32q-13.63.12-23.57,11.68-10.63,12.31-10.38,30.86.27,15.61,8.06,26.28T495.17,456q5.83,0,14.75-7.49-1.89,7.5-3.26,11.43-2.91,8.5-6.43,16.25l6.95-9.14q4.71-6.22,5.22-7a37.85,37.85,0,0,0,4-7.75A75.9,75.9,0,0,0,520.89,436l-4.29,4.19a16.8,16.8,0,0,1-12.08,5.2q-10.29,0-18.6-10.41a39.54,39.54,0,0,1-8.66-25.52q0-25.28,15.52-25.65,6.35-.14,12,4.69a19.83,19.83,0,0,1,7,13l.34,2.79L517,380.74l-3.18-1.52a26.17,26.17,0,0,0-11.31-2.54Zm292.8,3.43L783.86,388q.6,14.34.35,31.11-.35,19.43-1.8,37.21l12.85-1.53-1.45-1.14q-2.23-1.78-2.23-12.95,0-1.65.25-12.19,2.07,3,4,6.22a79,79,0,0,1,4.89,8.63,51.62,51.62,0,0,0,5.48,8.89q2.24,2.81,4.38,5.59l12.17-.89a139.69,139.69,0,0,1-11-14.86,178.47,178.47,0,0,1-11.41-21.2l16.12-15.62-13.89-.64,2.41,1.53A2.13,2.13,0,0,1,806,408c0,1.53-1.26,4.19-3.77,8a27.8,27.8,0,0,1-4.12,5.21l-3.6,3.3L791.83,427q.09-10.53.86-20.44.43-5.83,2-20.7ZM335.61,397.78,333.24,400c-1.74,1.6-4.35,2.41-7.84,2.41-7.58-.72-14.91-2.37-23.07-2.37q-11.13,0-18.42,9a33.33,33.33,0,0,0-7.2,21.46,37.5,37.5,0,0,0,2.66,14q4.62,11.69,14.74,11.69,7.89,0,13.46-7.62,1.71-2.42,2.31-3.18c.22,6.93,1.16,4.5,7.23,8,9.61,4.75,14.84,11.35,15.63,19.81q.56,6.35-1.79,8.76c-1.76,1.87-5.4,3-10.9,3.3a20,20,0,0,1-11.57-2.66,18.83,18.83,0,0,1-8.29-10.55l-1-2.79-10.72.64,1.86,5.08a23.21,23.21,0,0,0,9.49,11.93,26.3,26.3,0,0,0,13.75,3.56q11.91,0,19.64-7.24,9.5-8.88,8.42-17.27-.81-6.28-7.87-12.79A80.88,80.88,0,0,0,318,442.24c-.18-1.93-.31-4.14-.38-6.7q.07,2.29.08-22.35c0-.86,0-1.94.05-3.05.48-.09,1-.17,1.43-.29a36.79,36.79,0,0,0,14.7-8.38l2-1.78ZM271,399.19l-1.37.89c-1.95,1.27-4.34,1.48-7.2.63a30.88,30.88,0,0,0-8.57-1.26,23,23,0,0,0-18.77,8.88q-7.12,8.78-6.44,22.1.69,12.57,5.75,18.92a14.26,14.26,0,0,0,11.48,5.33q7.21,0,14.32-5.2l.17-.13c.17,3.39.43,5.29.77,5.72a1,1,0,0,0,1.29.5l1.54-.5,10.2-1.91-1.71-1c-1.37-.77-2.26-4.19-2.66-10.29q-.25-3.56-.52-17a128.27,128.27,0,0,1,1.21-22.35Zm579.31.47q-10.2,0-16.38,10.29A38.51,38.51,0,0,0,828.77,430a36.85,36.85,0,0,0,2.92,15q3.09,7.11,8.65,9.77a18.55,18.55,0,0,0,8.15,1.91q7.28,0,13.89-5.46l4.11-3.43-.6-1.14-2.66,2a9.39,9.39,0,0,1-5.74,2.16q-4,0-12-6.35-3.86-3.06-6.35-10a42,42,0,0,1-2.48-14.1l31.54-1.53-1.11-6.34a14.28,14.28,0,0,0-5.83-9.15,17.8,17.8,0,0,0-11-3.68Zm-441.18.89a21.33,21.33,0,0,0-16.55,7.62q-7.62,8.37-7.37,22.22.18,12.71,6.86,19.81A19.7,19.7,0,0,0,407,456.42a23.32,23.32,0,0,0,17.31-7.49q8-8.25,7.46-21.21t-7.46-20.44a19.93,19.93,0,0,0-15.17-6.73Zm162.15.12-1.38.9q-2.91,1.9-7.2.63a30.48,30.48,0,0,0-8.57-1.27,23,23,0,0,0-18.77,8.89q-7.12,8.76-6.43,22.09.69,12.58,5.75,18.93a14.28,14.28,0,0,0,11.48,5.33q7.2,0,14.32-5.21l.17-.12h0q.25,5.09.77,5.71a1,1,0,0,0,1.28.51l1.55-.51,10.2-1.9-1.72-1q-2.06-1.14-2.66-10.29-.25-3.55-.51-17a129.31,129.31,0,0,1,1.2-22.35Zm138.62,0-1.37.9q-2.93,1.9-7.2.63a30.55,30.55,0,0,0-8.58-1.27A23,23,0,0,0,674,409.82q-7.11,8.76-6.43,22.09.69,12.58,5.74,18.93a14.33,14.33,0,0,0,11.49,5.33q7.2,0,14.31-5.21l.18-.12h0q.25,5.09.77,5.71a1,1,0,0,0,1.29.51l1.54-.51,10.2-1.9-1.71-1q-2.07-1.14-2.66-10.29-.25-3.55-.52-17a129.31,129.31,0,0,1,1.2-22.35Zm-603.8,1.06-2.14,12.7,2.74-3.56a11.41,11.41,0,0,1,3.69-1.9A14.56,14.56,0,0,1,115,407.7l11.67-.51-26.41,47.62c12.7,0,23.14-1.55,36.43,2.29q.85-4.44,1.29-6.35a80,80,0,0,1,2.14-8.13L138,444.78a19.09,19.09,0,0,1-6.17,4.57,20.9,20.9,0,0,1-7,.89h-11l25.72-46.73a96.94,96.94,0,0,1-10.12,0,213,213,0,0,1-23.31-1.78Zm246.62,0-10.71.51q1.27,12.19,1.46,24a248.93,248.93,0,0,1-1.21,29.08l10.46-.51q-1.29-13.83-1.28-26.28,0-12.82,1.28-26.8Zm-103.06.13q6.42.12,8.48,2.54,3.09,3.68,3.09,16.25,0,5.09-.34,13.08-.44,10.66-.52,13.08l-.6.38a9.16,9.16,0,0,1-4.8,1.4q-6.16,0-11.4-7A28.26,28.26,0,0,1,237.89,426q-.51-11.67,2.66-17.9t9.09-6.22Zm156.3,1.36q6.51,0,12.69,15A46.48,46.48,0,0,1,422,436q0,11.81-5.23,15.75a7.44,7.44,0,0,1-4.63,1.65q-4.8,0-9.34-5.34A33.15,33.15,0,0,1,396.25,435a50,50,0,0,1-1.71-12.82q0-13.33,6.94-17.53a8.66,8.66,0,0,1,4.46-1.39Zm364.57,0-10.72.5q1.29,12.19,1.46,24a249,249,0,0,1-1.2,29.09l10.46-.51q-1.29-13.85-1.29-26.29,0-12.83,1.29-26.79Zm-220.6.12c4.29.09,7.11.93,8.49,2.54q3.09,3.69,3.08,16.26,0,5.07-.34,13.08-.43,10.66-.51,13.08l-.6.38a9.22,9.22,0,0,1-4.8,1.4q-6.18,0-11.4-7a28.29,28.29,0,0,1-5.66-15.62q-.51-11.69,2.66-17.91t9.08-6.22Zm29.91,0,1.46,1.65q1.54,1.78,2.14,9.28.09,1.51.51,14.09a159.2,159.2,0,0,1-1.54,28.95l13.29-.89-1-1q-2.31-2.3-2.66-10.16-.07-1-.08-15.11V417.31l.94-1a4.31,4.31,0,0,1,3.52-1.91c-.18,0,1,.17,3.6.51q5.22.63,9.25-3.94l4.29-4.82-1.54.12a12.12,12.12,0,0,1-5.06-1,17.42,17.42,0,0,0-4.72-1.65q-2.57-.39-4.79,2.66-.18.25-3.69,6.48L592,415.79c.12-3.9.4-8,.86-12.45Zm108.72,0c4.28.09,7.11.93,8.48,2.54q3.08,3.69,3.08,16.26,0,5.07-.34,13.08-.42,10.66-.51,13.08l-.6.38a9.16,9.16,0,0,1-4.8,1.4q-6.18,0-11.4-7a28.21,28.21,0,0,1-5.66-15.62q-.51-11.69,2.66-17.91t9.09-6.22Zm29.9,0L719.9,405c1,1.19,1.75,4.28,2.14,9.28q.09,1.51.52,14.09A160.11,160.11,0,0,1,721,457.31l13.28-.89-1-1q-2.31-2.3-2.65-10.16-.09-1-.09-15.11V417.31l.94-1a4.34,4.34,0,0,1,3.52-1.91q-.27,0,3.6.51,5.22.63,9.25-3.94l4.29-4.82-1.54.12a12.15,12.15,0,0,1-5.06-1,17.51,17.51,0,0,0-4.71-1.65q-2.58-.39-4.81,2.66-.16.25-3.68,6.48l-1.71,3.05c.11-3.9.4-8,.85-12.45Zm128.68.38a9,9,0,0,1,6.51,2.8,11.38,11.38,0,0,1,3.26,7.75l.17,2.41-20.31,1.39a20.55,20.55,0,0,1,2.91-10.28,8.43,8.43,0,0,1,7.46-4.07Zm-548.9.33a11.28,11.28,0,0,1,9.69,5.08l2,2.79c.11,3.14.17,5.5.17,7.11q.09,12.08-.17,23.37l-1.12,1.65c-1.77,2.62-3.93,3.93-6.51,3.93q-5.06,0-10-5.84a29.88,29.88,0,0,1-6.43-13.58,38.81,38.81,0,0,1-.77-7.37q0-8.25,4.12-12.95a11.62,11.62,0,0,1,9.08-4.19Zm341.12.94a11.28,11.28,0,0,1,9.68,5.08l2,2.8q.16,4.69.17,7.11.09,12.06-.17,23.36L649.89,445q-2.67,3.93-6.52,3.93-5.05,0-10-5.84a29.87,29.87,0,0,1-6.43-13.59,38.71,38.71,0,0,1-.77-7.36c0-5.51,1.37-9.82,4.11-13a11.65,11.65,0,0,1,9.09-4.19Z"/></g></svg>