<svg id="Слой_1" data-name="Слой 1" xmlns="http://www.w3.org/2000/svg" viewBox="0 0 382 420"><defs><style>.cls-1{fill:#f1e8d6;}</style></defs><path class="cls-1" d="M339.45,10.41c22.9,0,35,27.08,19.76,44.16L222.54,207.5,187,247.27,54.31,395.75a26.52,26.52,0,0,1-19.76,8.84h0c-22.9,0-35-27.08-19.76-44.16L151.46,207.5,187,167.73,319.69,19.25a26.52,26.52,0,0,1,19.76-8.84Z"/><path class="cls-1" d="M339.45,404.59h0a26.52,26.52,0,0,1-19.76-8.84L187,247.27,151.46,207.5,14.79,54.57C-.47,37.49,11.65,10.41,34.55,10.41h0a26.52,26.52,0,0,1,19.76,8.84L187,167.73l35.54,39.77L359.21,360.43C374.47,377.51,362.35,404.59,339.45,404.59Z"/></svg>