<svg id="Слой_1" data-name="Слой 1" xmlns="http://www.w3.org/2000/svg" xmlns:xlink="http://www.w3.org/1999/xlink" viewBox="0 0 822 137"><defs><style>.cls-1{fill:none;}.cls-2{clip-path:url(#clip-path);}.cls-3{fill:#f0e7d5;}</style><clipPath id="clip-path"><rect class="cls-1" x="-29.76" y="-342" width="845.83" height="478.7"/></clipPath></defs><g class="cls-2"><path class="cls-3" d="M156.14,15.21c-28.3-5.27-43.16,34.45-12,44.73,37.9,26.71-9.91,51.23-21,8.13a45.66,45.66,0,0,1-3.53,23.58c41.71,22.78,72.18-26.71,24.5-47-21.49-15.06,4.8-39.4,14.11-11.85,2.43,13.07,4-14.08,14.82-19.54C172.11,13.26,161.79,18.58,156.14,15.21Z"/><path class="cls-3" d="M58.92,89.91,84.73,43c-9.14.46-25.36-.59-33.55-1.78L49,54c4.21-8.13,15.41-6.78,22.8-7.26L45.33,94.5c12.75,0,23.22-1.55,36.56,2.3a119.26,119.26,0,0,1,3.44-14.54C79.09,91.35,68.65,90.05,58.92,89.91Z"/><path class="cls-3" d="M20.57,10.94l-8.38,9.93c4.07-1.4,8.14-5.19,12.21-2.59,5.19,8.51,4.26,60.73-4.67,82.13C26.7,96.28,31.35,97.35,36,96a705.54,705.54,0,0,1,.6-77.31C31.46,17.84,25.68,16.27,20.57,10.94Z"/><path class="cls-3" d="M657.17,41.68c-4.65,4.39-11.67-.19-17.2.26-37.8-2.39-30.88,76.58,6.53,50.08.45,5-.15,7.31,3.62,5.74l10.23-1.91C651.53,88.31,656.05,54.27,657.17,41.68ZM646.5,89.48c-22.82,11-32.42-43-10.75-45.12C655.18,43.06,644.84,78.26,646.5,89.48Z"/><path class="cls-3" d="M679.38,55.61q.17-5.86.86-12.49H667.16c7.4,11.66,3.8,38.84,2.59,54.17l13.33-.9c-6.81-6.89-2.69-26.29-3.78-39.25,1.2-1.39,2.61-3.07,4.47-2.93,6.08,2.68,13.55-2.7,17.2-8.29C686.18,44.54,688.2,38.37,679.38,55.61Z"/><path class="cls-3" d="M609.61,96c-3.28-4.38-3.27-6.84-3.79-17.21-.34-4.12.73-53.24,2.84-64.36a42.06,42.06,0,0,1-11.36,5.1q.53,16.32.69,23.58c-50.09-9.38-36.67,88.24.09,45.5C598,93,598,96.39,597.9,98.69A40.88,40.88,0,0,1,609.61,96ZM598.08,84.5C579.2,107.64,559.24,46.28,586.38,46c5.36-.26,9.07,3.58,11.7,7.91C598.44,64.9,598.26,74.22,598.08,84.5Z"/><path class="cls-3" d="M784.41,61.44l31.66-1.54c-.16-10-7.11-19.63-18-19.24-38.63,4.1-20.64,84.41,16.26,48.3l-.6-1.14C799.72,101.49,782.7,76.36,784.41,61.44Zm10.5-16.7c6.65,0,10.23,6.62,10,13l-20.39,1.4C785,52.05,787.42,44.85,794.91,44.74Z"/><path class="cls-3" d="M707.26,44.74A258.45,258.45,0,0,1,707.52,98L718,97.5a275.61,275.61,0,0,1,0-53.27Z"/><path class="cls-3" d="M764.2,46.27l-13.93-.64c9.67,4.78-6.23,18-10.84,22.43.14-16.83,1.44-27.72,3.44-47l-11.45,7.9A581.57,581.57,0,0,1,730,97.5L742.87,96c-5.94-4.85-3-14.11-3.44-26.38,7,9.88,10.78,20.34,18.84,29.44l12.21-.89c-9.27-10.9-16.39-22.91-22.45-36.2Z"/><path class="cls-3" d="M539,55.61q.18-5.86.86-12.49H526.79c7.41,11.65,3.8,38.84,2.59,54.17l13.33-.9c-6.81-6.88-2.69-26.28-3.78-39.25,1.2-1.39,2.61-3.07,4.47-2.93,6.09,2.68,13.55-2.7,17.21-8.29C545.81,44.55,547.83,38.36,539,55.61Z"/><path class="cls-3" d="M287.94,43.25a259.15,259.15,0,0,1,.26,53.27L298.7,96a275.61,275.61,0,0,1,0-53.27Z"/><path class="cls-3" d="M355.31,41.55c-29.87-.81-33.37,56.14-2.15,56.08C384.85,98.71,386.59,42.15,355.31,41.55Zm3,53c-18.53-2.34-26.09-46.79-6.19-50.34C365.76,45.69,377.68,91.27,358.32,94.57Z"/><path class="cls-3" d="M216.68,40.19C212,44.58,205,40,199.47,40.45,161.68,38.06,168.59,117,206,90.53c.43,5-.13,7.3,3.61,5.74l10.24-1.91C211,86.83,215.56,52.78,216.68,40.19ZM206,88c-22.81,11-32.42-43-10.75-45.11C214.69,41.57,204.35,76.77,206,88Z"/><path class="cls-3" d="M263.84,83.39c-.17-1.94-.3-4.15-.38-6.72q.09,2.3.09-22.43c0-.87,0-1.94.05-3.06,6.49-1.17,12.75-5.38,18.19-10.49l-.24-1.91c-8.36,9.41-22.15,1.08-33.4,2.21-41.89-1.58-25.92,86.74,7.57,45.5.22,7,1.17,4.51,7.25,8,39.71,21.94-4.73,51.88-17.93,15.94l-10.76.63C251.25,161.65,323.32,108,263.84,83.39Zm-8.12.17c-18.89,23.11-38.83-38.23-11.7-38.49,5.36-.27,9.07,3.57,11.7,7.9C256.08,64,255.9,73.28,255.72,83.56Z"/><path class="cls-3" d="M518.05,41.68c-4.65,4.39-11.68-.19-17.21.26C463,39.54,470,118.52,507.38,92c.44,5-.16,7.31,3.61,5.74l10.24-1.91C512.4,88.32,516.92,54.27,518.05,41.68Zm-10.67,47.8c-22.82,11-32.42-43-10.76-45.12C516.06,43.06,505.71,78.25,507.38,89.48Z"/><path class="cls-3" d="M423.71,50.47c-3.41-34.24,33.25-31.7,34.92-5.22l4.91-23.58c-4.49-2.36-9.43-4.19-14.54-4.07-49.58-2.39-41.25,106.51,7.49,72.13a152.11,152.11,0,0,1-9.73,27.78c10-11.88,19.64-26.22,20.74-40.4C449.69,100.94,421.85,73.94,423.71,50.47Z"/></g></svg>