<svg id="Слой_1" data-name="Слой 1" xmlns="http://www.w3.org/2000/svg" viewBox="0 0 624 608"><defs><style>.cls-1{fill:#f1e8d6;}.cls-1:hover{fill:#6c6860;}</style></defs><circle class="cls-1" cx="89.33" cy="213.41" r="74.46"/><circle class="cls-1" cx="223.36" cy="94.28" r="74.46"/><circle class="cls-1" cx="402.06" cy="94.28" r="74.46"/><circle class="cls-1" cx="536.08" cy="213.41" r="74.46"/><path class="cls-1" d="M471.75,373.05c-25.91-30.38-47.65-56.29-73.86-86.67-13.7-16.08-31.27-32.17-52.12-39.31a60.2,60.2,0,0,0-9.83-2.69c-7.45-1.19-15.49-1.19-23.23-1.19s-15.79,0-23.53,1.49a60.89,60.89,0,0,0-9.83,2.68c-20.85,7.15-38.12,23.23-52.12,39.32-25.91,30.38-47.65,56.29-73.86,86.67-39,39-87,82.2-78,142.66,8.63,30.38,30.37,60.46,69.39,69.09,21.74,4.47,91.14-13.1,165-13.1h5.36c73.86,0,143.26,17.27,165,13.1,39-8.63,60.76-39,69.39-69.09C558.72,455.25,510.77,412.06,471.75,373.05Z"/></svg>